<?xml version="1.0" encoding="utf-8"?>
<!-- Generator: Adobe Illustrator 19.2.1, SVG Export Plug-In . SVG Version: 6.00 Build 0)  -->
<svg version="1.1" id="layer" xmlns="http://www.w3.org/2000/svg" xmlns:xlink="http://www.w3.org/1999/xlink" x="0px" y="0px"
	 viewBox="0 0 652 652" style="enable-background:new 0 0 652 652;" xml:space="preserve">
<style type="text/css">
	.st0{fill:#0EA800;}
</style>
<path class="st0" d="M71.1,265.4c18.9,0,36,6.4,48.2,18c12.1,11.5,18.7,27.4,18.7,44.8v0.3c0,17.4-6.6,33.4-18.7,44.9
	c-12.2,11.8-29.3,18.2-48.2,18.2H26.5V265.4L71.1,265.4L71.1,265.4z M71.1,283.4H45.5l0,90.4h25.6c27.9,0,47.4-18.5,47.4-44.9v-0.4
	c0-12.5-4.5-23.9-12.7-32.1C97,287.9,85,283.4,71.1,283.4L71.1,283.4z M195.4,295.1c13.3,0,25.6,5.2,34.6,14.5
	c8.8,9.2,13.6,21.4,13.6,34.5v0.3c0,27.7-21.3,49.3-48.5,49.3c-26.9,0-48-21.5-48-48.9v-0.4c0-13.2,4.9-25.5,13.8-34.7
	C169.9,300.3,182.2,295.1,195.4,295.1L195.4,295.1z M216.6,367.2c5.3-5.9,8.3-13.8,8.3-22.4v-0.4c0-18.1-13.1-32.2-29.9-32.2
	c-16.7,0-29.3,13.7-29.3,31.9v0.3c0,18,13,32.1,29.7,32.1C203.6,376.5,211.2,373.2,216.6,367.2z M358,290.7l40.6,26.7l0,74.4h-18.3
	v-64.9L358,312.2l-22.3,14.6v64.9h-18.3l0-64.9l-22.3-14.6l-22.3,14.6v64.9h-18.3V297h17.7v8.7l22.9-15l31.4,20.6L358,290.7z
	 M452.9,295.6c13.1,0,23.2,3.6,30.1,10.7c6.6,6.7,9.9,16.2,9.9,28.1v57.3h-18.2v-9.1c-5.8,5.4-15.1,11-28.8,11
	c-17.5,0-35.3-10.5-35.3-30.5v-0.3c0-10.1,4-18.3,11.5-23.9c7-5.2,16.9-7.9,28.6-7.9c10,0,17,1.2,24.1,3
	c-0.3-13.8-8.1-20.8-23.2-20.8c-8.9,0-16.7,1.9-25.4,6.1l-2.6,1.3l-5.7-16l2.2-1C431.5,297.9,441,295.6,452.9,295.6L452.9,295.6z
	 M467.5,371.4c4.9-3.9,7.5-9.2,7.5-15.3v-6.2c-5.9-1.6-13.2-3.2-22.9-3.2c-14.3,0-22.9,5.7-22.9,15.3v0.4c0,9.9,9.7,15.1,19.3,15.1
	C455.8,377.5,462.6,375.4,467.5,371.4L467.5,371.4z M509.6,391.6V297h18.3v94.7H509.6L509.6,391.6z M518.7,258.2
	c7.3,0,13.3,6,13.3,13.3c0,7.3-5.9,13.3-13.3,13.3c-7.3,0-13.3-6-13.3-13.3C505.5,264.1,511.4,258.2,518.7,258.2z M590.3,295.1
	c22,0,36.2,15.1,36.2,38.4v58.1h-18.3v-54.9c0-15.7-7.7-24.3-21.6-24.3c-13.9,0-23.6,10.4-23.6,25.3v53.8h-18.3V297H563v10.1
	C570.1,299,579.1,295.1,590.3,295.1L590.3,295.1z"/>
</svg>
